<?xml version="1.0" encoding="UTF-8" standalone="no"?>
<svg xmlns="http://www.w3.org/2000/svg" version="1.1" preserveAspectRatio="xMidYMid" viewBox="-40 -40 160 160" width="240" height="240" onload="StartAnimation(evt)">
<script type="application/javascript"><![CDATA[
var i = 0;
var frameCount = 31;
var playCount = 1;
var groups = [];
function StartAnimation(evt) {
	if (playCount === 0) return;
	groups = document.getElementsByTagName('g');
	groups[0].style.display = 'inline';
	window.setTimeout(Animate, groups[0].dataset.duration);
}
function Animate() {
	groups[i++].style.display = 'none';
	if (i === frameCount && playCount !== 0) {
		i = 0;
		if (playCount !== -1) playCount -= 1;
	}
	if (playCount === 0) return;
	groups[i].style.display = 'inline';
	window.setTimeout(Animate, groups[i].dataset.duration);
}
]]></script>
<g style="display:none" data-duration="35">
	<path stroke-linecap="round" stroke-linejoin="round" fill="rgba(255,255,255,1)" stroke="rgba(0,0,0,1)" stroke-width="3" d="M34,67L29,62L24,67L29,72L34,67Z"/>
	<path stroke-linecap="round" stroke-linejoin="round" fill="rgba(255,255,255,1)" stroke="rgba(0,0,0,1)" stroke-width="3" d="M12,37L7,42L2,37L7,32L12,37Z"/>
	<path stroke-linecap="round" stroke-linejoin="round" fill="rgba(255,255,255,1)" stroke="rgba(0,0,0,1)" stroke-width="3" d="M24,7L19,12L24,17L29,12L24,7Z"/>
	<path stroke-linecap="round" stroke-linejoin="round" fill="rgba(255,255,255,1)" stroke="rgba(0,0,0,1)" stroke-width="4" d="M38,19L32,25L26,25L19,32L19,45L26,52L31,52L38,59L47,59L54,52L59,52L66,45L66,32L59,25L53,25L47,19L38,19Z"/>
	<path stroke-linecap="round" stroke-linejoin="round" fill="rgba(0,0,0,0)" stroke="rgba(0,0,0,1)" stroke-width="3" d="M47,42L72,42"/>
	<path stroke-linecap="round" stroke-linejoin="round" fill="rgba(0,0,0,0)" stroke="rgba(0,0,0,1)" stroke-width="3" d="M78,36L47,36"/>
	<path stroke-linecap="round" stroke-linejoin="round" fill="rgba(0,0,0,0)" stroke="rgba(0,0,0,1)" stroke-width="4" d="M32,25L37,30"/>
	<path stroke-linecap="round" stroke-linejoin="round" fill="rgba(0,0,0,0)" stroke="rgba(0,0,0,1)" stroke-width="4" d="M37,46L31,52"/>
</g>
<g style="display:none" data-duration="35">
	<path stroke-linecap="round" stroke-linejoin="round" fill="rgba(255,255,255,1)" stroke="rgba(0,0,0,1)" stroke-width="3" d="M34,67L29,62L24,67L29,72L34,67Z"/>
	<path stroke-linecap="round" stroke-linejoin="round" fill="rgba(255,255,255,1)" stroke="rgba(0,0,0,1)" stroke-width="3" d="M12,37L7,42L2,37L7,32L12,37Z"/>
	<path stroke-linecap="round" stroke-linejoin="round" fill="rgba(255,255,255,1)" stroke="rgba(0,0,0,1)" stroke-width="3" d="M24,7L19,12L24,17L29,12L24,7Z"/>
	<path stroke-linecap="round" stroke-linejoin="round" fill="rgba(255,255,255,1)" stroke="rgba(0,0,0,1)" stroke-width="4" d="M38,19L32,25L26,25L19,32L19,45L26,52L31,52L38,59L47,59L54,52L59,52L66,45L66,32L59,25L53,25L47,19L38,19Z"/>
	<path stroke-linecap="round" stroke-linejoin="round" fill="rgba(0,0,0,0)" stroke="rgba(0,0,0,1)" stroke-width="3" d="M47,42L72,42"/>
	<path stroke-linecap="round" stroke-linejoin="round" fill="rgba(0,0,0,0)" stroke="rgba(0,0,0,1)" stroke-width="3" d="M78,36L47,36"/>
	<path stroke-linecap="round" stroke-linejoin="round" fill="rgba(0,0,0,0)" stroke="rgba(0,0,0,1)" stroke-width="4" d="M32,25L37,30"/>
	<path stroke-linecap="round" stroke-linejoin="round" fill="rgba(0,0,0,0)" stroke="rgba(0,0,0,1)" stroke-width="4" d="M37,46L31,52"/>
</g>
<g style="display:none" data-duration="35">
	<path stroke-linecap="round" stroke-linejoin="round" fill="rgba(255,255,255,1)" stroke="rgba(0,0,0,1)" stroke-width="3" d="M34,67L29,62L24,67L29,72L34,67Z"/>
	<path stroke-linecap="round" stroke-linejoin="round" fill="rgba(255,255,255,1)" stroke="rgba(0,0,0,1)" stroke-width="3" d="M12,37L7,42L2,37L7,32L12,37Z"/>
	<path stroke-linecap="round" stroke-linejoin="round" fill="rgba(255,255,255,1)" stroke="rgba(0,0,0,1)" stroke-width="3" d="M24,7L19,12L24,17L29,12L24,7Z"/>
	<path stroke-linecap="round" stroke-linejoin="round" fill="rgba(255,255,255,1)" stroke="rgba(0,0,0,1)" stroke-width="4" d="M38,19L32,25L26,25L19,32L19,45L26,52L31,52L38,59L47,59L54,52L59,52L66,45L66,32L59,25L53,25L47,19L38,19Z"/>
	<path stroke-linecap="round" stroke-linejoin="round" fill="rgba(0,0,0,0)" stroke="rgba(0,0,0,1)" stroke-width="3" d="M47,42L72,42"/>
	<path stroke-linecap="round" stroke-linejoin="round" fill="rgba(0,0,0,0)" stroke="rgba(0,0,0,1)" stroke-width="3" d="M78,36L47,36"/>
	<path stroke-linecap="round" stroke-linejoin="round" fill="rgba(0,0,0,0)" stroke="rgba(0,0,0,1)" stroke-width="4" d="M32,25L37,30"/>
	<path stroke-linecap="round" stroke-linejoin="round" fill="rgba(0,0,0,0)" stroke="rgba(0,0,0,1)" stroke-width="4" d="M37,46L31,52"/>
</g>
<g style="display:none" data-duration="35">
	<path stroke-linecap="round" stroke-linejoin="round" fill="rgba(255,255,255,1)" stroke="rgba(0,0,0,1)" stroke-width="3" d="M34,67L29,62L24,67L29,72L34,67Z"/>
	<path stroke-linecap="round" stroke-linejoin="round" fill="rgba(255,255,255,1)" stroke="rgba(0,0,0,1)" stroke-width="3" d="M12,37L7,42L2,37L7,32L12,37Z"/>
	<path stroke-linecap="round" stroke-linejoin="round" fill="rgba(255,255,255,1)" stroke="rgba(0,0,0,1)" stroke-width="3" d="M24,7L19,12L24,17L29,12L24,7Z"/>
	<path stroke-linecap="round" stroke-linejoin="round" fill="rgba(255,255,255,1)" stroke="rgba(0,0,0,1)" stroke-width="4" d="M38,19L32,25L26,25L19,32L19,45L26,52L31,52L38,59L47,59L54,52L59,52L66,45L66,32L59,25L53,25L47,19L38,19Z"/>
	<path stroke-linecap="round" stroke-linejoin="round" fill="rgba(0,0,0,0)" stroke="rgba(0,0,0,1)" stroke-width="3" d="M47,42L72,42"/>
	<path stroke-linecap="round" stroke-linejoin="round" fill="rgba(0,0,0,0)" stroke="rgba(0,0,0,1)" stroke-width="3" d="M78,36L47,36"/>
	<path stroke-linecap="round" stroke-linejoin="round" fill="rgba(0,0,0,0)" stroke="rgba(0,0,0,1)" stroke-width="4" d="M32,25L37,30"/>
	<path stroke-linecap="round" stroke-linejoin="round" fill="rgba(0,0,0,0)" stroke="rgba(0,0,0,1)" stroke-width="4" d="M37,46L31,52"/>
</g>
<g style="display:none" data-duration="35">
	<path stroke-linecap="round" stroke-linejoin="round" fill="rgba(255,255,255,1)" stroke="rgba(0,0,0,1)" stroke-width="3" d="M34,67L29,62L24,67L29,72L34,67Z"/>
	<path stroke-linecap="round" stroke-linejoin="round" fill="rgba(255,255,255,1)" stroke="rgba(0,0,0,1)" stroke-width="3" d="M12,37L7,42L2,37L7,32L12,37Z"/>
	<path stroke-linecap="round" stroke-linejoin="round" fill="rgba(255,255,255,1)" stroke="rgba(0,0,0,1)" stroke-width="3" d="M24,7L19,12L24,17L29,12L24,7Z"/>
	<path stroke-linecap="round" stroke-linejoin="round" fill="rgba(255,255,255,1)" stroke="rgba(0,0,0,1)" stroke-width="4" d="M38,19L32,25L26,25L19,32L19,45L26,52L31,52L38,59L47,59L54,52L59,52L66,45L66,32L59,25L53,25L47,19L38,19Z"/>
	<path stroke-linecap="round" stroke-linejoin="round" fill="rgba(0,0,0,0)" stroke="rgba(0,0,0,1)" stroke-width="3" d="M47,42L72,42"/>
	<path stroke-linecap="round" stroke-linejoin="round" fill="rgba(0,0,0,0)" stroke="rgba(0,0,0,1)" stroke-width="3" d="M78,36L47,36"/>
	<path stroke-linecap="round" stroke-linejoin="round" fill="rgba(0,0,0,0)" stroke="rgba(0,0,0,1)" stroke-width="4" d="M32,25L37,30"/>
	<path stroke-linecap="round" stroke-linejoin="round" fill="rgba(0,0,0,0)" stroke="rgba(0,0,0,1)" stroke-width="4" d="M37,46L31,52"/>
</g>
<g style="display:none" data-duration="35">
	<path stroke-linecap="round" stroke-linejoin="round" fill="rgba(255,255,255,1)" stroke="rgba(0,0,0,1)" stroke-width="3" d="M34,67L29,62L24,67L29,72L34,67Z"/>
	<path stroke-linecap="round" stroke-linejoin="round" fill="rgba(255,255,255,1)" stroke="rgba(0,0,0,1)" stroke-width="3" d="M12,37L7,42L2,37L7,32L12,37Z"/>
	<path stroke-linecap="round" stroke-linejoin="round" fill="rgba(255,255,255,1)" stroke="rgba(0,0,0,1)" stroke-width="3" d="M24,7L19,12L24,17L29,12L24,7Z"/>
	<path stroke-linecap="round" stroke-linejoin="round" fill="rgba(255,255,255,1)" stroke="rgba(0,0,0,1)" stroke-width="4" d="M38,19L32,25L26,25L19,32L19,45L26,52L31,52L38,59L47,59L54,52L59,52L66,45L66,32L59,25L53,25L47,19L38,19Z"/>
	<path stroke-linecap="round" stroke-linejoin="round" fill="rgba(0,0,0,0)" stroke="rgba(0,0,0,1)" stroke-width="3" d="M47,42L72,42"/>
	<path stroke-linecap="round" stroke-linejoin="round" fill="rgba(0,0,0,0)" stroke="rgba(0,0,0,1)" stroke-width="3" d="M78,36L47,36"/>
	<path stroke-linecap="round" stroke-linejoin="round" fill="rgba(0,0,0,0)" stroke="rgba(0,0,0,1)" stroke-width="4" d="M32,25L37,30"/>
	<path stroke-linecap="round" stroke-linejoin="round" fill="rgba(0,0,0,0)" stroke="rgba(0,0,0,1)" stroke-width="4" d="M37,46L31,52"/>
</g>
<g style="display:none" data-duration="35">
	<path stroke-linecap="round" stroke-linejoin="round" fill="rgba(255,255,255,1)" stroke="rgba(0,0,0,1)" stroke-width="3" d="M34,67L29,62L24,67L29,72L34,67Z"/>
	<path stroke-linecap="round" stroke-linejoin="round" fill="rgba(255,255,255,1)" stroke="rgba(0,0,0,1)" stroke-width="3" d="M12,37L7,42L2,37L7,32L12,37Z"/>
	<path stroke-linecap="round" stroke-linejoin="round" fill="rgba(255,255,255,1)" stroke="rgba(0,0,0,1)" stroke-width="3" d="M24,7L19,12L24,17L29,12L24,7Z"/>
	<path stroke-linecap="round" stroke-linejoin="round" fill="rgba(255,255,255,1)" stroke="rgba(0,0,0,1)" stroke-width="4" d="M38,19L32,25L26,25L19,32L19,45L26,52L31,52L38,59L47,59L54,52L59,52L66,45L66,32L59,25L53,25L47,19L38,19Z"/>
	<path stroke-linecap="round" stroke-linejoin="round" fill="rgba(0,0,0,0)" stroke="rgba(0,0,0,1)" stroke-width="3" d="M47,42L72,42"/>
	<path stroke-linecap="round" stroke-linejoin="round" fill="rgba(0,0,0,0)" stroke="rgba(0,0,0,1)" stroke-width="3" d="M78,36L47,36"/>
	<path stroke-linecap="round" stroke-linejoin="round" fill="rgba(0,0,0,0)" stroke="rgba(0,0,0,1)" stroke-width="4" d="M32,25L37,30"/>
	<path stroke-linecap="round" stroke-linejoin="round" fill="rgba(0,0,0,0)" stroke="rgba(0,0,0,1)" stroke-width="4" d="M37,46L31,52"/>
</g>
<g style="display:none" data-duration="35">
	<path stroke-linecap="round" stroke-linejoin="round" fill="rgba(255,255,255,1)" stroke="rgba(0,0,0,1)" stroke-width="3" d="M34,67L29,62L24,67L29,72L34,67Z"/>
	<path stroke-linecap="round" stroke-linejoin="round" fill="rgba(255,255,255,1)" stroke="rgba(0,0,0,1)" stroke-width="3" d="M12,37L7,42L2,37L7,32L12,37Z"/>
	<path stroke-linecap="round" stroke-linejoin="round" fill="rgba(255,255,255,1)" stroke="rgba(0,0,0,1)" stroke-width="3" d="M24,7L19,12L24,17L29,12L24,7Z"/>
	<path stroke-linecap="round" stroke-linejoin="round" fill="rgba(255,255,255,1)" stroke="rgba(0,0,0,1)" stroke-width="4" d="M38,19L32,25L26,25L19,32L19,45L26,52L31,52L38,59L47,59L54,52L59,52L66,45L66,32L59,25L53,25L47,19L38,19Z"/>
	<path stroke-linecap="round" stroke-linejoin="round" fill="rgba(0,0,0,0)" stroke="rgba(0,0,0,1)" stroke-width="3" d="M47,42L72,42"/>
	<path stroke-linecap="round" stroke-linejoin="round" fill="rgba(0,0,0,0)" stroke="rgba(0,0,0,1)" stroke-width="3" d="M78,36L47,36"/>
	<path stroke-linecap="round" stroke-linejoin="round" fill="rgba(0,0,0,0)" stroke="rgba(0,0,0,1)" stroke-width="4" d="M32,25L37,30"/>
	<path stroke-linecap="round" stroke-linejoin="round" fill="rgba(0,0,0,0)" stroke="rgba(0,0,0,1)" stroke-width="4" d="M37,46L31,52"/>
</g>
<g style="display:none" data-duration="35">
	<path stroke-linecap="round" stroke-linejoin="round" fill="rgba(255,255,255,1)" stroke="rgba(0,0,0,1)" stroke-width="3" d="M34,67L29,62L24,67L29,72L34,67Z"/>
	<path stroke-linecap="round" stroke-linejoin="round" fill="rgba(255,255,255,1)" stroke="rgba(0,0,0,1)" stroke-width="3" d="M12,37L7,42L2,37L7,32L12,37Z"/>
	<path stroke-linecap="round" stroke-linejoin="round" fill="rgba(255,255,255,1)" stroke="rgba(0,0,0,1)" stroke-width="3" d="M24,7L19,12L24,17L29,12L24,7Z"/>
	<path stroke-linecap="round" stroke-linejoin="round" fill="rgba(255,255,255,1)" stroke="rgba(0,0,0,1)" stroke-width="4" d="M38,19L32,25L26,25L19,32L19,45L26,52L31,52L38,59L47,59L54,52L59,52L66,45L66,32L59,25L53,25L47,19L38,19Z"/>
	<path stroke-linecap="round" stroke-linejoin="round" fill="rgba(0,0,0,0)" stroke="rgba(0,0,0,1)" stroke-width="3" d="M47,42L72,42"/>
	<path stroke-linecap="round" stroke-linejoin="round" fill="rgba(0,0,0,0)" stroke="rgba(0,0,0,1)" stroke-width="3" d="M78,36L47,36"/>
	<path stroke-linecap="round" stroke-linejoin="round" fill="rgba(0,0,0,0)" stroke="rgba(0,0,0,1)" stroke-width="4" d="M32,25L37,30"/>
	<path stroke-linecap="round" stroke-linejoin="round" fill="rgba(0,0,0,0)" stroke="rgba(0,0,0,1)" stroke-width="4" d="M37,46L31,52"/>
</g>
<g style="display:none" data-duration="35">
	<path stroke-linecap="round" stroke-linejoin="round" fill="rgba(255,255,255,1)" stroke="rgba(0,0,0,1)" stroke-width="3" d="M34,67L29,62L24,67L29,72L34,67Z"/>
	<path stroke-linecap="round" stroke-linejoin="round" fill="rgba(255,255,255,1)" stroke="rgba(0,0,0,1)" stroke-width="3" d="M12,37L7,42L2,37L7,32L12,37Z"/>
	<path stroke-linecap="round" stroke-linejoin="round" fill="rgba(255,255,255,1)" stroke="rgba(0,0,0,1)" stroke-width="3" d="M24,7L19,12L24,17L29,12L24,7Z"/>
	<path stroke-linecap="round" stroke-linejoin="round" fill="rgba(255,255,255,1)" stroke="rgba(0,0,0,1)" stroke-width="4" d="M38,19L32,25L26,25L19,32L19,45L26,52L31,52L38,59L47,59L54,52L59,52L66,45L66,32L59,25L53,25L47,19L38,19Z"/>
	<path stroke-linecap="round" stroke-linejoin="round" fill="rgba(0,0,0,0)" stroke="rgba(0,0,0,1)" stroke-width="3" d="M47,42L72,42"/>
	<path stroke-linecap="round" stroke-linejoin="round" fill="rgba(0,0,0,0)" stroke="rgba(0,0,0,1)" stroke-width="3" d="M78,36L47,36"/>
	<path stroke-linecap="round" stroke-linejoin="round" fill="rgba(0,0,0,0)" stroke="rgba(0,0,0,1)" stroke-width="4" d="M32,25L37,30"/>
	<path stroke-linecap="round" stroke-linejoin="round" fill="rgba(0,0,0,0)" stroke="rgba(0,0,0,1)" stroke-width="4" d="M37,46L31,52"/>
</g>
<g style="display:none" data-duration="35">
	<path stroke-linecap="round" stroke-linejoin="round" fill="rgba(255,255,255,1)" stroke="rgba(0,0,0,1)" stroke-width="3" d="M34,67L29,62L24,67L29,72L34,67Z"/>
	<path stroke-linecap="round" stroke-linejoin="round" fill="rgba(255,255,255,1)" stroke="rgba(0,0,0,1)" stroke-width="3" d="M12,37L7,42L2,37L7,32L12,37Z"/>
	<path stroke-linecap="round" stroke-linejoin="round" fill="rgba(255,255,255,1)" stroke="rgba(0,0,0,1)" stroke-width="3" d="M24,7L19,12L24,17L29,12L24,7Z"/>
	<path stroke-linecap="round" stroke-linejoin="round" fill="rgba(255,255,255,1)" stroke="rgba(0,0,0,1)" stroke-width="4" d="M38,19L32,25L26,25L19,32L19,45L26,52L31,52L38,59L47,59L54,52L59,52L66,45L66,32L59,25L53,25L47,19L38,19Z"/>
	<path stroke-linecap="round" stroke-linejoin="round" fill="rgba(0,0,0,0)" stroke="rgba(0,0,0,1)" stroke-width="3" d="M47,42L73,42"/>
	<path stroke-linecap="round" stroke-linejoin="round" fill="rgba(0,0,0,0)" stroke="rgba(0,0,0,1)" stroke-width="3" d="M79,36L49,36"/>
	<path stroke-linecap="round" stroke-linejoin="round" fill="rgba(0,0,0,0)" stroke="rgba(0,0,0,1)" stroke-width="4" d="M32,25L37,30"/>
	<path stroke-linecap="round" stroke-linejoin="round" fill="rgba(0,0,0,0)" stroke="rgba(0,0,0,1)" stroke-width="4" d="M37,46L31,52"/>
</g>
<g style="display:none" data-duration="35">
	<path stroke-linecap="round" stroke-linejoin="round" fill="rgba(255,255,255,1)" stroke="rgba(0,0,0,1)" stroke-width="3" d="M21,64L17,69L21,74L26,69L21,64Z"/>
	<path stroke-linecap="round" stroke-linejoin="round" fill="rgba(255,255,255,1)" stroke="rgba(0,0,0,1)" stroke-width="3" d="M5,37L1,41L-3,37L1,32L5,37Z"/>
	<path stroke-linecap="round" stroke-linejoin="round" fill="rgba(255,255,255,1)" stroke="rgba(0,0,0,1)" stroke-width="3" d="M15,4L10,8L15,13L19,8L15,4Z"/>
	<path stroke-linecap="round" stroke-linejoin="round" fill="rgba(255,255,255,1)" stroke="rgba(0,0,0,1)" stroke-width="4" d="M53,50L61,50L73,45L73,32L58,26L52,26L46,21L37,21L31,25L27,25L20,33L20,44L27,52L31,52L37,57L46,57L53,50Z"/>
	<path stroke-linecap="round" stroke-linejoin="round" fill="rgba(0,0,0,0)" stroke="rgba(0,0,0,1)" stroke-width="3" d="M48,42L77,42"/>
	<path stroke-linecap="round" stroke-linejoin="round" fill="rgba(0,0,0,0)" stroke="rgba(0,0,0,1)" stroke-width="3" d="M97,36L49,36"/>
	<path stroke-linecap="round" stroke-linejoin="round" fill="rgba(0,0,0,0)" stroke="rgba(0,0,0,1)" stroke-width="4" d="M37,32L31,25"/>
	<path stroke-linecap="round" stroke-linejoin="round" fill="rgba(0,0,0,0)" stroke="rgba(0,0,0,1)" stroke-width="4" d="M37,45L31,52"/>
</g>
<g style="display:none" data-duration="35">
	<path stroke-linecap="round" stroke-linejoin="round" fill="rgba(255,255,255,1)" stroke="rgba(0,0,0,1)" stroke-width="3" d="M13,71L17,76L22,71L17,67L13,71Z"/>
	<path stroke-linecap="round" stroke-linejoin="round" fill="rgba(255,255,255,1)" stroke="rgba(0,0,0,1)" stroke-width="3" d="M1,37L-2,40L-5,37L-2,33L1,37Z"/>
	<path stroke-linecap="round" stroke-linejoin="round" fill="rgba(255,255,255,1)" stroke="rgba(0,0,0,1)" stroke-width="3" d="M6,5L10,10L14,5L10,1L6,5Z"/>
	<path stroke-linecap="round" stroke-linejoin="round" fill="rgba(255,255,255,1)" stroke="rgba(0,0,0,1)" stroke-width="4" d="M28,37L28,46L36,52L41,59L51,59L59,54L65,53L71,48L79,48L83,43L83,33L78,28L64,27L52,19L41,19L34,31L28,37Z"/>
	<path stroke-linecap="round" stroke-linejoin="round" fill="rgba(0,0,0,0)" stroke="rgba(0,0,0,1)" stroke-width="3" d="M55,42L87,42"/>
	<path stroke-linecap="round" stroke-linejoin="round" fill="rgba(0,0,0,0)" stroke="rgba(0,0,0,1)" stroke-width="3" d="M120,36L76,36"/>
	<path stroke-linecap="round" stroke-linejoin="round" fill="rgba(0,0,0,0)" stroke="rgba(0,0,0,1)" stroke-width="4" d="M52,19L54,28"/>
	<path stroke-linecap="round" stroke-linejoin="round" fill="rgba(0,0,0,0)" stroke="rgba(0,0,0,1)" stroke-width="4" d="M39,33L34,31"/>
	<path stroke-linecap="round" stroke-linejoin="round" fill="rgba(0,0,0,0)" stroke="rgba(0,0,0,1)" stroke-width="4" d="M40,48L36,52"/>
	<path stroke-linecap="round" stroke-linejoin="round" fill="rgba(0,0,0,0)" stroke="rgba(0,0,0,1)" stroke-width="4" d="M51,59L55,50"/>
</g>
<g style="display:none" data-duration="35">
	<path stroke-linecap="round" stroke-linejoin="round" fill="rgba(255,255,255,1)" stroke="rgba(0,0,0,1)" stroke-width="3" d="M28,35L25,38L25,43L28,45L28,48L31,52L38,52L41,48L41,46L44,43L44,38L41,35L41,32L38,29L31,29L28,32L28,35Z"/>
	<path stroke-linecap="round" stroke-linejoin="round" fill="rgba(255,255,255,1)" stroke="rgba(0,0,0,1)" stroke-width="3" d="M43,58L45,61L46,62L49,62L52,61L53,59L55,59L56,59L57,57L57,54L56,53L53,52L50,50L46,50L44,52L43,55L43,58Z"/>
	<path stroke-linecap="round" stroke-linejoin="round" fill="rgba(255,255,255,1)" stroke="rgba(0,0,0,1)" stroke-width="3" d="M56,19L53,19L50,16L46,16L44,19L43,21L43,24L45,27L46,28L49,28L52,27L53,26L55,25L56,25L57,24L57,21L56,19Z"/>
	<path stroke-linecap="round" stroke-linejoin="round" fill="rgba(255,255,255,1)" stroke="rgba(0,0,0,1)" stroke-width="3" d="M15,69L10,73L15,77L19,73L15,69Z"/>
	<path stroke-linecap="round" stroke-linejoin="round" fill="rgba(255,255,255,1)" stroke="rgba(0,0,0,1)" stroke-width="3" d="M-1,37L-3,39L-6,37L-3,34L-1,37Z"/>
	<path stroke-linecap="round" stroke-linejoin="round" fill="rgba(255,255,255,1)" stroke="rgba(0,0,0,1)" stroke-width="3" d="M4,3L8,7L11,3L8,0L4,3Z"/>
	<path stroke-linecap="round" stroke-linejoin="round" fill="rgba(255,255,255,1)" stroke="rgba(0,0,0,1)" stroke-width="4" d="M98,45L100,42L100,35L97,31L87,31L79,25L71,25L67,31L62,36L62,44L67,49L71,53L78,53L84,49L86,47L92,45L98,45Z"/>
	<path stroke-linecap="round" stroke-linejoin="round" fill="rgba(0,0,0,0)" stroke="rgba(0,0,0,1)" stroke-width="4" d="M79,53L78,53"/>
	<path stroke-linecap="round" stroke-linejoin="round" fill="rgba(0,0,0,0)" stroke="rgba(0,0,0,1)" stroke-width="4" d="M67,31L67,31"/>
</g>
<g style="display:none" data-duration="35">
	<path stroke-linecap="round" stroke-linejoin="round" fill="rgba(255,255,255,1)" stroke="rgba(0,0,0,1)" stroke-width="3" d="M35,50L38,47L38,43L39,41L39,37L35,33L31,33L29,35L26,35L23,38L23,41L21,43L21,47L25,51L29,51L31,50L35,50Z"/>
	<path stroke-linecap="round" stroke-linejoin="round" fill="rgba(255,255,255,1)" stroke="rgba(0,0,0,1)" stroke-width="3" d="M63,38L63,42L66,44L70,44L71,46L75,46L79,42L79,38L77,36L77,33L75,30L71,30L70,28L65,28L62,32L62,36L63,38Z"/>
	<path stroke-linecap="round" stroke-linejoin="round" fill="rgba(255,255,255,1)" stroke="rgba(0,0,0,1)" stroke-width="3" d="M43,62L45,65L48,65L49,64L52,64L53,62L53,59L54,58L54,56L52,53L49,53L48,54L45,54L44,56L44,58L43,60L43,62Z"/>
	<path stroke-linecap="round" stroke-linejoin="round" fill="rgba(255,255,255,1)" stroke="rgba(0,0,0,1)" stroke-width="3" d="M45,13L43,16L43,19L44,20L44,22L45,24L48,24L49,25L52,25L54,22L54,20L53,19L53,16L52,14L49,14L48,13L45,13Z"/>
	<path stroke-linecap="round" stroke-linejoin="round" fill="rgba(255,255,255,1)" stroke="rgba(0,0,0,1)" stroke-width="3" d="M13,78L9,75L13,71L16,75L13,78Z"/>
	<path stroke-linecap="round" stroke-linejoin="round" fill="rgba(255,255,255,1)" stroke="rgba(0,0,0,1)" stroke-width="3" d="M-4,38L-5,37L-4,36L-3,37L-4,38Z"/>
	<path stroke-linecap="round" stroke-linejoin="round" fill="rgba(255,255,255,1)" stroke="rgba(0,0,0,1)" stroke-width="3" d="M4,2L6,4L9,2L6,0L4,2Z"/>
	<path stroke-linecap="round" stroke-linejoin="round" fill="rgba(255,255,255,1)" stroke="rgba(0,0,0,1)" stroke-width="4" d="M122,34L116,33L110,31L105,35L102,35L99,38L99,41L101,43L104,43L110,47L113,46L115,44L119,43L123,43L125,41L125,36L122,34Z"/>
	<path stroke-linecap="round" stroke-linejoin="round" fill="rgba(0,0,0,0)" stroke="rgba(0,0,0,1)" stroke-width="4" d="M105,42L101,43"/>
	<path stroke-linecap="round" stroke-linejoin="round" fill="rgba(0,0,0,0)" stroke="rgba(0,0,0,1)" stroke-width="4" d="M110,47L110,47"/>
	<path stroke-linecap="round" stroke-linejoin="round" fill="rgba(0,0,0,0)" stroke="rgba(0,0,0,1)" stroke-width="4" d="M105,38L102,35"/>
</g>
<g style="display:none" data-duration="35">
	<path stroke-linecap="round" stroke-linejoin="round" fill="rgba(255,255,255,1)" stroke="rgba(0,0,0,1)" stroke-width="3" d="M32,39L30,37L26,37L24,39L22,39L20,42L20,46L22,49L24,49L26,51L30,51L32,49L34,49L36,46L36,42L34,39L32,39Z"/>
	<path stroke-linecap="round" stroke-linejoin="round" fill="rgba(255,255,255,1)" stroke="rgba(0,0,0,1)" stroke-width="3" d="M62,30L60,33L60,37L62,40L64,40L67,42L70,42L72,40L74,40L76,37L76,33L74,30L72,30L70,28L67,28L65,30L62,30Z"/>
	<path stroke-linecap="round" stroke-linejoin="round" fill="rgba(255,255,255,1)" stroke="rgba(0,0,0,1)" stroke-width="3" d="M48,58L45,58L44,60L44,61L43,62L43,64L44,65L44,66L45,68L48,68L49,66L49,65L51,64L51,62L49,61L49,60L48,58Z"/>
	<path stroke-linecap="round" stroke-linejoin="round" fill="rgba(255,255,255,1)" stroke="rgba(0,0,0,1)" stroke-width="3" d="M50,17L51,16L51,14L50,13L50,12L48,11L46,11L44,12L44,13L43,14L43,16L44,18L44,19L46,20L48,20L50,19L50,17Z"/>
	<path stroke-linecap="round" stroke-linejoin="round" fill="rgba(255,255,255,1)" stroke="rgba(0,0,0,1)" stroke-width="3" d="M12,73L9,76L12,79L15,76L12,73Z"/>
	<path stroke-linecap="round" stroke-linejoin="round" fill="rgba(255,255,255,1)" stroke="rgba(0,0,0,1)" stroke-width="3" d="M6,1L5,2L6,3L7,2L6,1Z"/>
</g>
<g style="display:none" data-duration="35">
	<path stroke-linecap="round" stroke-linejoin="round" fill="rgba(255,255,255,1)" stroke="rgba(0,0,0,1)" stroke-width="3" d="M18,46L20,47L21,47L22,48L24,48L25,47L26,47L27,46L27,43L26,42L25,42L24,41L22,41L21,42L20,42L18,43L18,46Z"/>
	<path stroke-linecap="round" stroke-linejoin="round" fill="rgba(255,255,255,1)" stroke="rgba(0,0,0,1)" stroke-width="3" d="M71,35L71,32L69,31L68,31L67,30L65,30L64,31L63,31L62,32L62,35L63,36L64,36L65,37L67,37L68,36L69,36L71,35Z"/>
	<path stroke-linecap="round" stroke-linejoin="round" fill="rgba(255,255,255,1)" stroke="rgba(0,0,0,1)" stroke-width="3" d="M48,63L48,63L47,63L47,62L47,62L47,62L46,62L46,63L46,63L46,63L46,63L46,64L47,64L47,64L47,64L47,63L48,63Z"/>
	<path stroke-linecap="round" stroke-linejoin="round" fill="rgba(255,255,255,1)" stroke="rgba(0,0,0,1)" stroke-width="3" d="M46,15L47,16L47,16L47,15L47,15L48,15L48,15L47,14L47,14L47,14L47,14L46,14L46,14L46,15L46,15L46,15L46,15Z"/>
	<path stroke-linecap="round" stroke-linejoin="round" fill="rgba(255,255,255,1)" stroke="rgba(0,0,0,1)" stroke-width="3" d="M9,76L11,78L13,76L11,75L9,76Z"/>
</g>
<g style="display:none" data-duration="35">
	<path stroke-linecap="round" stroke-linejoin="round" fill="rgba(255,255,255,1)" stroke="rgba(0,0,0,1)" stroke-width="3" d="M18,44L17,44L17,44L17,44L17,45L17,45L17,45L17,45L17,45L18,45L18,45L18,45L18,45L18,45L18,44L18,44L18,44Z"/>
	<path stroke-linecap="round" stroke-linejoin="round" fill="rgba(255,255,255,1)" stroke="rgba(0,0,0,1)" stroke-width="3" d="M62,31L62,31L62,31L61,31L61,32L62,32L62,32L62,32L63,32L63,32L63,32L63,32L63,31L63,31L63,31L63,31L62,31Z"/>
</g>
<g style="display:none" data-duration="35">
	<path stroke-linecap="round" stroke-linejoin="round" fill="rgba(0,0,0,0)" stroke="rgba(0,0,0,0)" stroke-width="0" d="M0,0L0,0"/>
</g>
<g style="display:none" data-duration="35">
	<path stroke-linecap="round" stroke-linejoin="round" fill="rgba(0,0,0,0)" stroke="rgba(0,0,0,0)" stroke-width="0" d="M0,0L0,0"/>
</g>
<g style="display:none" data-duration="35">
	<path stroke-linecap="round" stroke-linejoin="round" fill="rgba(0,0,0,0)" stroke="rgba(0,0,0,0)" stroke-width="0" d="M0,0L0,0"/>
</g>
<g style="display:none" data-duration="35">
	<path stroke-linecap="round" stroke-linejoin="round" fill="rgba(0,0,0,0)" stroke="rgba(0,0,0,0)" stroke-width="0" d="M0,0L0,0"/>
</g>
<g style="display:none" data-duration="35">
	<path stroke-linecap="round" stroke-linejoin="round" fill="rgba(0,0,0,0)" stroke="rgba(0,0,0,0)" stroke-width="0" d="M0,0L0,0"/>
</g>
<g style="display:none" data-duration="35">
	<path stroke-linecap="round" stroke-linejoin="round" fill="rgba(0,0,0,0)" stroke="rgba(0,0,0,0)" stroke-width="0" d="M0,0L0,0"/>
</g>
<g style="display:none" data-duration="35">
	<path stroke-linecap="round" stroke-linejoin="round" fill="rgba(0,0,0,0)" stroke="rgba(0,0,0,0)" stroke-width="0" d="M0,0L0,0"/>
</g>
<g style="display:none" data-duration="35">
	<path stroke-linecap="round" stroke-linejoin="round" fill="rgba(0,0,0,0)" stroke="rgba(0,0,0,0)" stroke-width="0" d="M0,0L0,0"/>
</g>
<g style="display:none" data-duration="35">
	<path stroke-linecap="round" stroke-linejoin="round" fill="rgba(0,0,0,0)" stroke="rgba(0,0,0,0)" stroke-width="0" d="M0,0L0,0"/>
</g>
<g style="display:none" data-duration="35">
	<path stroke-linecap="round" stroke-linejoin="round" fill="rgba(0,0,0,0)" stroke="rgba(0,0,0,0)" stroke-width="0" d="M0,0L0,0"/>
</g>
<g style="display:none" data-duration="35">
	<path stroke-linecap="round" stroke-linejoin="round" fill="rgba(0,0,0,0)" stroke="rgba(0,0,0,0)" stroke-width="0" d="M0,0L0,0"/>
</g>
<g style="display:none" data-duration="35">
	<path stroke-linecap="round" stroke-linejoin="round" fill="rgba(0,0,0,0)" stroke="rgba(0,0,0,0)" stroke-width="0" d="M0,0L0,0"/>
</g>
<g style="display:none" data-duration="35">
	<path stroke-linecap="round" stroke-linejoin="round" fill="rgba(0,0,0,0)" stroke="rgba(0,0,0,0)" stroke-width="0" d="M0,0L0,0"/>
</g>
</svg>
