<?xml version="1.0" encoding="UTF-8" standalone="no"?>
<svg xmlns="http://www.w3.org/2000/svg" version="1.1" preserveAspectRatio="xMidYMid" viewBox="-12 -12 50 50" width="75" height="75">
	<path stroke-linecap="round" stroke-linejoin="round" fill="rgba(255,255,255,1)" stroke="rgba(0,0,0,1)" stroke-width="2" d="M21,23L23,21L23,18L20,15L16,15L13,12L9,12L5,16L5,16L2,16L0,18L0,21L2,23L21,23Z"/>
	<path stroke-linecap="round" stroke-linejoin="round" fill="rgba(255,255,255,1)" stroke="rgba(0,0,0,1)" stroke-width="2" d="M8,9L6,7L6,4L8,2L12,2L14,0L17,0L19,2L21,2L23,4L23,7L21,9L8,9Z"/>
	<path stroke-linecap="round" stroke-linejoin="round" fill="rgba(0,0,0,0)" stroke="rgba(0,0,0,1)" stroke-width="2" d="M19,2L17,4"/>
	<path stroke-linecap="round" stroke-linejoin="round" fill="rgba(0,0,0,0)" stroke="rgba(0,0,0,1)" stroke-width="2" d="M5,16L7,18"/>
</svg>
