<?xml version="1.0" encoding="UTF-8" standalone="no"?>
<svg xmlns="http://www.w3.org/2000/svg" version="1.1" preserveAspectRatio="xMidYMid" viewBox="-12 -12 50 50" width="75" height="75">
	<path stroke-linecap="round" stroke-linejoin="round" fill="rgba(255,255,255,1)" stroke="rgba(0,0,0,1)" stroke-width="2" d="M17,5L15,7L15,11L17,13L21,13L23,11L23,7L21,5L17,5Z"/>
	<path stroke-linecap="round" stroke-linejoin="round" fill="rgba(0,0,0,0)" stroke="rgba(0,0,0,1)" stroke-width="2" d="M19,0L19,2"/>
	<path stroke-linecap="round" stroke-linejoin="round" fill="rgba(0,0,0,0)" stroke="rgba(0,0,0,1)" stroke-width="2" d="M12,2L14,4"/>
	<path stroke-linecap="round" stroke-linejoin="round" fill="rgba(255,255,255,1)" stroke="rgba(0,0,0,1)" stroke-width="2" d="M21,19L23,17L23,13L21,11L14,11L11,8L8,8L5,11L2,11L0,13L0,17L2,19L21,19Z"/>
	<path stroke-linecap="round" stroke-linejoin="round" fill="rgba(0,0,0,0)" stroke="rgba(0,0,0,1)" stroke-width="2" d="M5,11L7,13"/>
	<path stroke-linecap="round" stroke-linejoin="round" fill="rgba(255,255,255,1)" stroke="rgba(0,0,0,1)" stroke-width="2" d="M3,23L3,22"/>
	<path stroke-linecap="round" stroke-linejoin="round" fill="rgba(255,255,255,1)" stroke="rgba(0,0,0,1)" stroke-width="2" d="M7,23L7,22"/>
	<path stroke-linecap="round" stroke-linejoin="round" fill="rgba(255,255,255,1)" stroke="rgba(0,0,0,1)" stroke-width="2" d="M11,23L11,22"/>
</svg>
