<?xml version="1.0" encoding="UTF-8" standalone="no"?>
<svg xmlns="http://www.w3.org/2000/svg" version="1.1" preserveAspectRatio="xMidYMid" viewBox="-40 -40 160 160" width="240" height="240">
	<path stroke-linecap="round" stroke-linejoin="round" fill="rgba(0,0,0,0)" stroke="rgba(0,0,0,1)" stroke-width="3" d="M22,9L9,9"/>
	<path stroke-linecap="round" stroke-linejoin="round" fill="rgba(0,0,0,0)" stroke="rgba(0,0,0,1)" stroke-width="3" d="M14,17L2,17"/>
	<path stroke-linecap="round" stroke-linejoin="round" fill="rgba(0,0,0,0)" stroke="rgba(0,0,0,1)" stroke-width="3" d="M7,25L15,25"/>
	<path stroke-linecap="round" stroke-linejoin="round" fill="rgba(0,0,0,0)" stroke="rgba(0,0,0,1)" stroke-width="3" d="M11,72L19,68L27,72L35,68L43,72L51,68L59,72L67,68"/>
	<path stroke-linecap="round" stroke-linejoin="round" fill="rgba(0,0,0,0)" stroke="rgba(0,0,0,1)" stroke-width="4" d="M27,70L34,42L1,42"/>
	<path stroke-linecap="round" stroke-linejoin="round" fill="rgba(255,255,255,1)" stroke="rgba(0,0,0,1)" stroke-width="4" d="M75,30L21,30L21,15L29,13L34,8L55,8L63,16L75,19Z"/>
	<path stroke-linecap="round" stroke-linejoin="round" fill="rgba(255,255,255,1)" stroke="rgba(0,0,0,1)" stroke-width="3" d="M59,25L56,28L56,33L59,36L64,36L67,33L67,28L64,25L59,25Z"/>
	<path stroke-linecap="round" stroke-linejoin="round" fill="rgba(255,255,255,1)" stroke="rgba(0,0,0,1)" stroke-width="3" d="M31,25L28,28L28,33L31,36L36,36L39,33L39,28L36,25L31,25Z"/>
</svg>
