<?xml version="1.0" encoding="UTF-8" standalone="no"?>
<svg xmlns="http://www.w3.org/2000/svg" version="1.1" preserveAspectRatio="xMidYMid" viewBox="-40 -40 160 160" width="240" height="240">
	<path stroke-linecap="round" stroke-linejoin="round" fill="rgba(255,255,255,1)" stroke="rgba(0,0,0,1)" stroke-width="4" d="M62,68L68,44L73,23L66,16L38,16L33,37L27,61L34,68L62,68"/>
	<path stroke-linecap="round" stroke-linejoin="round" fill="rgba(0,0,0,0)" stroke="rgba(0,0,0,1)" stroke-width="4" d="M47,16L49,8"/>
	<path stroke-linecap="round" stroke-linejoin="round" fill="rgba(0,0,0,0)" stroke="rgba(0,0,0,1)" stroke-width="4" d="M66,16L61,37L55,61L27,61"/>
	<path stroke-linecap="round" stroke-linejoin="round" fill="rgba(0,0,0,0)" stroke="rgba(0,0,0,1)" stroke-width="4" d="M5,57L26,36L12,22"/>
	<path stroke-linecap="round" stroke-linejoin="round" fill="rgba(0,0,0,0)" stroke="rgba(0,0,0,1)" stroke-width="3" d="M38,43L42,43"/>
	<path stroke-linecap="round" stroke-linejoin="round" fill="rgba(0,0,0,0)" stroke="rgba(0,0,0,1)" stroke-width="3" d="M49,43L53,43"/>
	<path stroke-linecap="round" stroke-linejoin="round" fill="rgba(0,0,0,0)" stroke="rgba(0,0,0,1)" stroke-width="3" d="M36,49L40,49"/>
	<path stroke-linecap="round" stroke-linejoin="round" fill="rgba(0,0,0,0)" stroke="rgba(0,0,0,1)" stroke-width="3" d="M47,49L51,49"/>
	<path stroke-linecap="round" stroke-linejoin="round" fill="rgba(0,0,0,0)" stroke="rgba(0,0,0,1)" stroke-width="3" d="M40,37L44,37"/>
	<path stroke-linecap="round" stroke-linejoin="round" fill="rgba(0,0,0,0)" stroke="rgba(0,0,0,1)" stroke-width="3" d="M51,37L55,37"/>
	<path stroke-linecap="round" stroke-linejoin="round" fill="rgba(0,0,0,0)" stroke="rgba(0,0,0,1)" stroke-width="3" d="M34,55L38,55"/>
	<path stroke-linecap="round" stroke-linejoin="round" fill="rgba(0,0,0,0)" stroke="rgba(0,0,0,1)" stroke-width="3" d="M45,55L49,55"/>
	<path stroke-linecap="round" stroke-linejoin="round" fill="rgba(0,0,0,0)" stroke="rgba(0,0,0,1)" stroke-width="3" d="M56,62L62,68"/>
	<path stroke-linecap="round" stroke-linejoin="round" fill="rgba(0,0,0,0)" stroke="rgba(0,0,0,1)" stroke-width="3" d="M57,31L41,31L43,23L59,23L57,31Z"/>
	<path stroke-linecap="round" stroke-linejoin="round" fill="rgba(0,0,0,0)" stroke="rgba(0,0,0,1)" stroke-width="4" d="M11,29L11,21L19,21"/>
</svg>
