<?xml version="1.0" encoding="UTF-8" standalone="no"?>
<svg xmlns="http://www.w3.org/2000/svg" version="1.1" preserveAspectRatio="xMidYMid" viewBox="-25 -25 100 100" width="150" height="150">
	<path stroke-linecap="round" stroke-linejoin="round" fill="rgba(255,255,255,1)" stroke="rgba(0,0,0,1)" stroke-width="3" d="M47,21L4,21L4,9L11,9L17,3L32,3L38,9L47,9Z"/>
	<path stroke-linecap="round" stroke-linejoin="round" fill="rgba(255,255,255,1)" stroke="rgba(0,0,0,1)" stroke-width="3" d="M13,16L10,19L10,23L13,26L17,26L20,23L20,19L17,16Z"/>
	<path stroke-linecap="round" stroke-linejoin="round" fill="rgba(255,255,255,1)" stroke="rgba(0,0,0,1)" stroke-width="3" d="M34,16L31,19L31,23L34,26L38,26L41,23L41,19L38,16Z"/>
	<path stroke-linecap="round" stroke-linejoin="round" fill="rgba(0,0,0,0)" stroke="rgba(0,0,0,1)" stroke-width="3" d="M1,46L7,40L15,48L23,40L31,48L39,40L47,48"/>
	<path stroke-linecap="round" stroke-linejoin="round" fill="rgba(0,0,0,0)" stroke="rgba(0,0,0,1)" stroke-width="3" d="M15,46L15,31L1,31"/>
</svg>
