<?xml version="1.0" encoding="UTF-8" standalone="no"?>
<svg xmlns="http://www.w3.org/2000/svg" version="1.1" preserveAspectRatio="xMidYMid" viewBox="-25 -25 100 100" width="150" height="150">
	<path stroke-linecap="round" stroke-linejoin="round" fill="rgba(255,255,255,1)" stroke="rgba(0,0,0,1)" stroke-width="3" d="M43,44L47,40L47,34L44,31L31,31L25,25L16,25L11,30L6,30L2,34L2,40L6,44L43,44Z"/>
	<path stroke-linecap="round" stroke-linejoin="round" fill="rgba(0,0,0,0)" stroke="rgba(0,0,0,1)" stroke-width="2" d="M11,30L18,30L21,33"/>
	<path stroke-linecap="round" stroke-linejoin="round" fill="rgba(255,255,255,1)" stroke="rgba(0,0,0,1)" stroke-width="3" d="M15,19L12,16L12,12L15,9L23,9L27,5L36,5L40,9L44,9L47,12L47,16L44,19L15,19Z"/>
	<path stroke-linecap="round" stroke-linejoin="round" fill="rgba(0,0,0,0)" stroke="rgba(0,0,0,1)" stroke-width="2" d="M39,9L32,9L29,12"/>
</svg>
